<mxfile host="app.diagrams.net" modified="2023-08-06T13:32:27.580Z" agent="Mozilla/5.0 (Macintosh; Intel Mac OS X 10_15_7) AppleWebKit/605.1.15 (KHTML, like Gecko) Version/16.5 Safari/605.1.15" etag="wAUnrgl7bLjliEbbjtFJ" version="21.6.6" type="device">
  <diagram name="Page-1" id="Vo-q9LmXG0nWgNl1h6e-">
    <mxGraphModel dx="820" dy="556" grid="1" gridSize="10" guides="1" tooltips="1" connect="1" arrows="1" fold="1" page="1" pageScale="1" pageWidth="827" pageHeight="1169" math="0" shadow="0">
      <root>
        <mxCell id="0" />
        <mxCell id="1" parent="0" />
        <mxCell id="nooRwXWoRoZRqzIfNQcE-1" value="User" style="shape=umlActor;verticalLabelPosition=bottom;verticalAlign=top;html=1;outlineConnect=0;" vertex="1" parent="1">
          <mxGeometry x="50" y="160" width="30" height="60" as="geometry" />
        </mxCell>
        <mxCell id="nooRwXWoRoZRqzIfNQcE-2" value="checkoutPage" style="whiteSpace=wrap;html=1;aspect=fixed;" vertex="1" parent="1">
          <mxGeometry x="170" y="140" width="100" height="100" as="geometry" />
        </mxCell>
        <mxCell id="nooRwXWoRoZRqzIfNQcE-4" value="" style="endArrow=classic;html=1;rounded=0;entryX=0;entryY=0.5;entryDx=0;entryDy=0;" edge="1" parent="1" target="nooRwXWoRoZRqzIfNQcE-2">
          <mxGeometry width="50" height="50" relative="1" as="geometry">
            <mxPoint x="80" y="190" as="sourcePoint" />
            <mxPoint x="130" y="140" as="targetPoint" />
          </mxGeometry>
        </mxCell>
        <mxCell id="nooRwXWoRoZRqzIfNQcE-5" value="" style="endArrow=classic;html=1;rounded=0;" edge="1" parent="1">
          <mxGeometry width="50" height="50" relative="1" as="geometry">
            <mxPoint x="220" y="240" as="sourcePoint" />
            <mxPoint x="220" y="360" as="targetPoint" />
          </mxGeometry>
        </mxCell>
        <mxCell id="nooRwXWoRoZRqzIfNQcE-6" value="checkout PayLoad" style="text;strokeColor=none;align=center;fillColor=none;html=1;verticalAlign=middle;whiteSpace=wrap;rounded=0;" vertex="1" parent="1">
          <mxGeometry x="230" y="310" width="60" height="30" as="geometry" />
        </mxCell>
        <mxCell id="nooRwXWoRoZRqzIfNQcE-7" value="a" style="swimlane;startSize=0;" vertex="1" parent="1">
          <mxGeometry x="90" y="360" width="440" height="240" as="geometry" />
        </mxCell>
        <mxCell id="nooRwXWoRoZRqzIfNQcE-13" value="Rest Controller" style="rounded=1;whiteSpace=wrap;html=1;absoluteArcSize=1;arcSize=14;strokeWidth=2;" vertex="1" parent="nooRwXWoRoZRqzIfNQcE-7">
          <mxGeometry x="40" y="10" width="100" height="40" as="geometry" />
        </mxCell>
        <mxCell id="nooRwXWoRoZRqzIfNQcE-17" value="Data" style="shape=parallelogram;html=1;strokeWidth=2;perimeter=parallelogramPerimeter;whiteSpace=wrap;rounded=1;arcSize=12;size=0.23;" vertex="1" parent="nooRwXWoRoZRqzIfNQcE-7">
          <mxGeometry x="40" y="90" width="100" height="60" as="geometry" />
        </mxCell>
        <mxCell id="nooRwXWoRoZRqzIfNQcE-18" value="" style="endArrow=classic;html=1;rounded=0;entryX=0.5;entryY=0;entryDx=0;entryDy=0;" edge="1" parent="nooRwXWoRoZRqzIfNQcE-7" target="nooRwXWoRoZRqzIfNQcE-17">
          <mxGeometry width="50" height="50" relative="1" as="geometry">
            <mxPoint x="90" y="50" as="sourcePoint" />
            <mxPoint x="140" as="targetPoint" />
          </mxGeometry>
        </mxCell>
        <mxCell id="nooRwXWoRoZRqzIfNQcE-19" value="Payment Service" style="text;strokeColor=none;align=center;fillColor=none;html=1;verticalAlign=middle;whiteSpace=wrap;rounded=0;" vertex="1" parent="nooRwXWoRoZRqzIfNQcE-7">
          <mxGeometry x="340" y="205" width="60" height="30" as="geometry" />
        </mxCell>
        <mxCell id="nooRwXWoRoZRqzIfNQcE-20" value="queues" style="shape=internalStorage;whiteSpace=wrap;html=1;dx=15;dy=15;rounded=1;arcSize=8;strokeWidth=2;" vertex="1" parent="nooRwXWoRoZRqzIfNQcE-7">
          <mxGeometry x="55" y="165" width="70" height="70" as="geometry" />
        </mxCell>
        <mxCell id="nooRwXWoRoZRqzIfNQcE-23" value="Process Payment" style="rounded=1;whiteSpace=wrap;html=1;absoluteArcSize=1;arcSize=14;strokeWidth=2;" vertex="1" parent="nooRwXWoRoZRqzIfNQcE-7">
          <mxGeometry x="270" y="40" width="100" height="100" as="geometry" />
        </mxCell>
        <mxCell id="nooRwXWoRoZRqzIfNQcE-24" value="" style="endArrow=classic;html=1;rounded=0;exitX=1;exitY=0.5;exitDx=0;exitDy=0;" edge="1" parent="nooRwXWoRoZRqzIfNQcE-7" source="nooRwXWoRoZRqzIfNQcE-23">
          <mxGeometry width="50" height="50" relative="1" as="geometry">
            <mxPoint x="299" y="90" as="sourcePoint" />
            <mxPoint x="560" y="90" as="targetPoint" />
          </mxGeometry>
        </mxCell>
        <mxCell id="nooRwXWoRoZRqzIfNQcE-9" value="Browser" style="text;strokeColor=none;align=center;fillColor=none;html=1;verticalAlign=middle;whiteSpace=wrap;rounded=0;" vertex="1" parent="1">
          <mxGeometry x="200" y="110" width="60" height="30" as="geometry" />
        </mxCell>
        <mxCell id="nooRwXWoRoZRqzIfNQcE-11" value="FrontEnd" style="whiteSpace=wrap;html=1;aspect=fixed;" vertex="1" parent="1">
          <mxGeometry x="414" y="140" width="90" height="90" as="geometry" />
        </mxCell>
        <mxCell id="nooRwXWoRoZRqzIfNQcE-14" value="" style="endArrow=classic;startArrow=classic;html=1;rounded=0;entryX=-0.037;entryY=0.572;entryDx=0;entryDy=0;entryPerimeter=0;" edge="1" parent="1" target="nooRwXWoRoZRqzIfNQcE-11">
          <mxGeometry width="50" height="50" relative="1" as="geometry">
            <mxPoint x="270" y="190" as="sourcePoint" />
            <mxPoint x="320" y="145" as="targetPoint" />
          </mxGeometry>
        </mxCell>
        <mxCell id="nooRwXWoRoZRqzIfNQcE-16" value="" style="strokeWidth=2;html=1;shape=mxgraph.flowchart.database;whiteSpace=wrap;" vertex="1" parent="1">
          <mxGeometry x="150" y="700" width="70" height="100" as="geometry" />
        </mxCell>
        <mxCell id="nooRwXWoRoZRqzIfNQcE-21" value="" style="endArrow=classic;startArrow=classic;html=1;rounded=0;entryX=0.607;entryY=1.01;entryDx=0;entryDy=0;entryPerimeter=0;" edge="1" parent="1" source="nooRwXWoRoZRqzIfNQcE-16" target="nooRwXWoRoZRqzIfNQcE-20">
          <mxGeometry width="50" height="50" relative="1" as="geometry">
            <mxPoint x="187" y="670" as="sourcePoint" />
            <mxPoint x="240" y="620" as="targetPoint" />
          </mxGeometry>
        </mxCell>
        <mxCell id="nooRwXWoRoZRqzIfNQcE-22" value="Payment Event" style="text;strokeColor=none;align=center;fillColor=none;html=1;verticalAlign=middle;whiteSpace=wrap;rounded=0;" vertex="1" parent="1">
          <mxGeometry x="150" y="650" width="60" height="30" as="geometry" />
        </mxCell>
        <mxCell id="nooRwXWoRoZRqzIfNQcE-25" value="PSP" style="rounded=1;whiteSpace=wrap;html=1;absoluteArcSize=1;arcSize=14;strokeWidth=2;" vertex="1" parent="1">
          <mxGeometry x="650" y="420" width="100" height="60" as="geometry" />
        </mxCell>
      </root>
    </mxGraphModel>
  </diagram>
</mxfile>
